<svg width="150" height="40" viewBox="0 0 150 40" fill="none" xmlns="http://www.w3.org/2000/svg">
  <path d="M20 0C8.954 0 0 8.954 0 20s8.954 20 20 20 20-8.954 20-20S31.046 0 20 0zm0 36c-8.837 0-16-7.163-16-16S11.163 4 20 4s16 7.163 16 16-7.163 16-16 16z" fill="currentColor"/>
  <path d="M20 8c-6.627 0-12 5.373-12 12s5.373 12 12 12 12-5.373 12-12S26.627 8 20 8zm0 20c-4.411 0-8-3.589-8-8s3.589-8 8-8 8 3.589 8 8-3.589 8-8 8z" fill="currentColor"/>
  <path d="M55 12h6c5.523 0 10 4.477 10 10s-4.477 10-10 10h-6V12zm6 16c3.314 0 6-2.686 6-6s-2.686-6-6-6h-2v12h2z" fill="currentColor"/>
  <path d="M80 12h14v4H84v4h8v4h-8v4h10v4H80V12z" fill="currentColor"/>
  <path d="M102 12h6l8 16h-5l-1.5-3h-9l-1.5 3h-5l8-16zm5.5 9l-2.5-5-2.5 5h5z" fill="currentColor"/>
  <path d="M120 12h14v4h-10v4h8v4h-8v8h-4V12z" fill="currentColor"/>
  <path d="M140 12h4v20h-4V12z" fill="currentColor"/>
</svg> 